<svg width="13" height="15" viewBox="0 0 13 15" fill="none" xmlns="http://www.w3.org/2000/svg">
<path d="M7.61013 2.1708C8.15867 1.53644 8.49578 1.25164 9.1579 0.89158V11.4549L7.61013 11.7844V2.1708Z" fill="#EF4130"/>
<path d="M12.5554 7.48152C12.8763 6.78376 12.9141 6.47364 13 5.75784L1.13592 8.41186C0.854575 9.05749 0.764014 9.41838 0.720657 10.0593L12.5554 7.48152Z" fill="#EF4130"/>
<path d="M12.5554 10.717C12.8763 10.0192 12.9141 9.70913 13 8.99333L7.66676 10.1563C7.62901 10.7959 7.67237 11.124 7.62901 11.765L12.5554 10.717Z" fill="#EF4130"/>
<path d="M12.5554 13.952C12.8763 13.2543 12.9141 12.9442 13 12.2284L8.13864 13.3156C7.89326 13.6644 7.74226 14.2459 7.62901 15L12.5554 13.952Z" fill="#EF4130"/>
<path d="M4.83547 12.8504C5.30735 12.2495 5.79811 11.4936 6.13786 10.8734L0.41526 12.1513C0.133917 12.7969 0.0433564 13.1578 0 13.7988L4.83547 12.8504Z" fill="#EF4130"/>
<path d="M4.59009 1.27922C5.13863 0.644864 5.47574 0.360065 6.13786 0V10.9122L4.59009 11.2417V1.27922Z" fill="#EF4130"/>
</svg>
