<svg width="34" height="14" viewBox="0 0 34 14" fill="none" xmlns="http://www.w3.org/2000/svg">
<path d="M26.1639 3.60557C24.373 3.63315 23.1327 4.96542 23.131 6.74752C23.131 9.72573 23.131 10.5082 23.131 13.4881C23.131 13.6208 23.143 13.7587 23.1499 13.8914H26.3474V13.464C26.3474 10.7822 26.3406 9.42928 26.3474 6.87333C26.3474 6.76647 26.3903 6.66824 26.4624 6.59757C26.5396 6.52174 26.6493 6.47693 26.7677 6.48554C26.9753 6.50106 27.1297 6.68719 27.1297 6.89574V8.73127C27.1297 10.6237 28.6667 12.1559 30.564 12.1559C31.5126 12.1559 32.3721 11.7732 32.993 11.1528C33.6158 10.5323 34 9.67574 34 8.73127V3.59696C31.3891 3.59696 28.7782 3.56421 26.1656 3.60557H26.1639ZM30.962 9.25004C30.962 9.46892 30.7853 9.64644 30.564 9.64644C30.3427 9.64644 30.1677 9.46892 30.1677 9.25004V6.8785C30.1677 6.65962 30.3444 6.48382 30.564 6.48382C30.6738 6.48382 30.7733 6.52863 30.847 6.5993C30.9174 6.67168 30.962 6.77164 30.962 6.88023V9.25176V9.25004Z" fill="#EF4130"/>
<path d="M18.4907 13.9845L20.7345 3.58319H23.7262L21.4825 13.9845H18.4907Z" fill="#EF4130"/>
<path d="M18.568 4.04509C18.568 5.35667 18.0671 6.55278 17.2488 7.45072C18.0671 8.34867 18.568 9.54478 18.568 10.8546V13.9845H15.0101V9.81192C15.0101 9.70161 14.9655 9.60337 14.8952 9.52926C14.8232 9.4586 14.7219 9.41379 14.6122 9.41379C14.3926 9.41379 14.2159 9.59131 14.2159 9.81192V13.9845H10.6461V3.58319H14.2159V6.0478C14.2159 6.2684 14.3926 6.44765 14.6122 6.44765C14.8317 6.44765 15.0101 6.2684 15.0101 6.0478V3.58319H18.568V4.04509Z" fill="#EF4130"/>
<path d="M19.5784 3.18503C20.4538 3.18503 21.1634 2.47204 21.1634 1.59252C21.1634 0.712993 20.4538 0 19.5784 0C18.7029 0 17.9933 0.712993 17.9933 1.59252C17.9933 2.47204 18.7029 3.18503 19.5784 3.18503Z" fill="#EF4130"/>
<path d="M3.27649 3.58319H9.57902V6.49591H3.27649C3.0552 6.49591 2.87336 6.6786 2.87336 6.90438C2.87336 7.13016 3.05348 7.31285 3.27649 7.31285H7.62857C9.44693 7.31285 10.9274 8.81229 10.9274 10.6564C10.9274 12.5006 9.44693 14 7.62857 14H4.8993V11.0873H7.62857C7.86358 11.0873 8.054 10.8943 8.054 10.6564C8.054 10.4186 7.86358 10.2256 7.62857 10.2256H3.27649C1.47013 10.2256 0 8.73474 0 6.90438C0 5.07402 1.47013 3.58319 3.27649 3.58319Z" fill="#EF4130"/>
</svg>
